ISO-10303-21;
HEADER;
FILE_DESCRIPTION(('FreeCAD Model'),'2;1');
FILE_NAME('Open CASCADE Shape Model','2026-09-24T22:23:57',('Author'),(
    ''),'Open CASCADE STEP processor 7.8','FreeCAD','Unknown');
FILE_SCHEMA(('AUTOMOTIVE_DESIGN { 1 0 10303 214 1 1 1 1 }'));
ENDSEC;
DATA;
#1 = APPLICATION_PROTOCOL_DEFINITION('international standard',
  'automotive_design',2000,#2);
#2 = APPLICATION_CONTEXT(
  'core data for automotive mechanical design processes');
#3 = SHAPE_DEFINITION_REPRESENTATION(#4,#10);
#4 = PRODUCT_DEFINITION_SHAPE('','',#5);
#5 = PRODUCT_DEFINITION('design','',#6,#9);
#6 = PRODUCT_DEFINITION_FORMATION('','',#7);
#7 = PRODUCT('Body','Body','',(#8));
#8 = PRODUCT_CONTEXT('',#2,'mechanical');
#9 = PRODUCT_DEFINITION_CONTEXT('part definition',#2,'design');
#10 = ADVANCED_BREP_SHAPE_REPRESENTATION('',(#11,#15),#1135);
#11 = AXIS2_PLACEMENT_3D('',#12,#13,#14);
#12 = CARTESIAN_POINT('',(0.,0.,0.));
#13 = DIRECTION('',(0.,0.,1.));
#14 = DIRECTION('',(1.,0.,-0.));
#15 = MANIFOLD_SOLID_BREP('',#16);
#16 = CLOSED_SHELL('',(#17,#34,#59,#84,#109,#134,#159,#184,#204,#229,
    #249,#274,#317,#518,#542,#566,#583,#595,#626,#650,#674,#691,#722,
    #746,#770,#787,#818,#842,#866,#883,#914,#938,#962,#979,#1010,#1034,
    #1058,#1075,#1087,#1099,#1111,#1123));
#17 = ADVANCED_FACE('',(#18),#29,.F.);
#18 = FACE_BOUND('',#19,.T.);
#19 = EDGE_LOOP('',(#20));
#20 = ORIENTED_EDGE('',*,*,#21,.F.);
#21 = EDGE_CURVE('',#22,#22,#24,.T.);
#22 = VERTEX_POINT('',#23);
#23 = CARTESIAN_POINT('',(27.5,-3.275157922644E-15,8.5));
#24 = CIRCLE('',#25,2.);
#25 = AXIS2_PLACEMENT_3D('',#26,#27,#28);
#26 = CARTESIAN_POINT('',(27.5,-3.941291737419E-15,6.5));
#27 = DIRECTION('',(-1.,2.22044604925E-16,-1.110223024625E-16));
#28 = DIRECTION('',(-1.110223024625E-16,3.330669073875E-16,1.));
#29 = PLANE('',#30);
#30 = AXIS2_PLACEMENT_3D('',#31,#32,#33);
#31 = CARTESIAN_POINT('',(27.5,-3.941291737419E-15,6.5));
#32 = DIRECTION('',(-1.,2.22044604925E-16,-1.110223024625E-16));
#33 = DIRECTION('',(-1.110223024625E-16,3.330669073875E-16,1.));
#34 = ADVANCED_FACE('',(#35),#54,.T.);
#35 = FACE_BOUND('',#36,.T.);
#36 = EDGE_LOOP('',(#37,#38,#46,#53));
#37 = ORIENTED_EDGE('',*,*,#21,.T.);
#38 = ORIENTED_EDGE('',*,*,#39,.T.);
#39 = EDGE_CURVE('',#22,#40,#42,.T.);
#40 = VERTEX_POINT('',#41);
#41 = CARTESIAN_POINT('',(26.5,-2.720046410332E-15,9.5));
#42 = LINE('',#43,#44);
#43 = CARTESIAN_POINT('',(27.5,-1.126876369995E-14,8.5));
#44 = VECTOR('',#45,1.);
#45 = DIRECTION('',(-0.707106781187,3.925231146709E-16,0.707106781187));
#46 = ORIENTED_EDGE('',*,*,#47,.F.);
#47 = EDGE_CURVE('',#40,#40,#48,.T.);
#48 = CIRCLE('',#49,3.);
#49 = AXIS2_PLACEMENT_3D('',#50,#51,#52);
#50 = CARTESIAN_POINT('',(26.5,-3.719247132494E-15,6.5));
#51 = DIRECTION('',(-1.,2.22044604925E-16,-1.110223024625E-16));
#52 = DIRECTION('',(-1.110223024625E-16,3.330669073875E-16,1.));
#53 = ORIENTED_EDGE('',*,*,#39,.F.);
#54 = CONICAL_SURFACE('',#55,2.,0.785398163397);
#55 = AXIS2_PLACEMENT_3D('',#56,#57,#58);
#56 = CARTESIAN_POINT('',(27.5,-3.941291737419E-15,6.5));
#57 = DIRECTION('',(-1.,2.22044604925E-16,-1.110223024625E-16));
#58 = DIRECTION('',(-1.110223024625E-16,3.330669073875E-16,1.));
#59 = ADVANCED_FACE('',(#60),#79,.T.);
#60 = FACE_BOUND('',#61,.T.);
#61 = EDGE_LOOP('',(#62,#63,#71,#78));
#62 = ORIENTED_EDGE('',*,*,#47,.T.);
#63 = ORIENTED_EDGE('',*,*,#64,.T.);
#64 = EDGE_CURVE('',#40,#65,#67,.T.);
#65 = VERTEX_POINT('',#66);
#66 = CARTESIAN_POINT('',(23.5,-2.053912595557E-15,9.5));
#67 = LINE('',#68,#69);
#68 = CARTESIAN_POINT('',(26.5,-1.071365218763E-14,9.5));
#69 = VECTOR('',#70,1.);
#70 = DIRECTION('',(-1.,4.440892098501E-16,1.110223024625E-16));
#71 = ORIENTED_EDGE('',*,*,#72,.F.);
#72 = EDGE_CURVE('',#65,#65,#73,.T.);
#73 = CIRCLE('',#74,3.);
#74 = AXIS2_PLACEMENT_3D('',#75,#76,#77);
#75 = CARTESIAN_POINT('',(23.5,-3.053113317719E-15,6.5));
#76 = DIRECTION('',(-1.,2.22044604925E-16,-1.110223024625E-16));
#77 = DIRECTION('',(-1.110223024625E-16,3.330669073875E-16,1.));
#78 = ORIENTED_EDGE('',*,*,#64,.F.);
#79 = CYLINDRICAL_SURFACE('',#80,3.);
#80 = AXIS2_PLACEMENT_3D('',#81,#82,#83);
#81 = CARTESIAN_POINT('',(26.5,-3.719247132494E-15,6.5));
#82 = DIRECTION('',(-1.,2.22044604925E-16,-1.110223024625E-16));
#83 = DIRECTION('',(-1.110223024625E-16,3.330669073875E-16,1.));
#84 = ADVANCED_FACE('',(#85),#104,.T.);
#85 = FACE_BOUND('',#86,.T.);
#86 = EDGE_LOOP('',(#87,#88,#96,#103));
#87 = ORIENTED_EDGE('',*,*,#72,.T.);
#88 = ORIENTED_EDGE('',*,*,#89,.T.);
#89 = EDGE_CURVE('',#65,#90,#92,.T.);
#90 = VERTEX_POINT('',#91);
#91 = CARTESIAN_POINT('',(22.5,-2.164934898019E-15,8.5));
#92 = LINE('',#93,#94);
#93 = CARTESIAN_POINT('',(23.5,-9.381384558083E-15,9.5));
#94 = VECTOR('',#95,1.);
#95 = DIRECTION('',(-0.707106781187,2.355138688026E-16,-0.707106781187)
  );
#96 = ORIENTED_EDGE('',*,*,#97,.F.);
#97 = EDGE_CURVE('',#90,#90,#98,.T.);
#98 = CIRCLE('',#99,2.);
#99 = AXIS2_PLACEMENT_3D('',#100,#101,#102);
#100 = CARTESIAN_POINT('',(22.5,-2.831068712794E-15,6.5));
#101 = DIRECTION('',(-1.,2.22044604925E-16,-1.110223024625E-16));
#102 = DIRECTION('',(-1.110223024625E-16,3.330669073875E-16,1.));
#103 = ORIENTED_EDGE('',*,*,#89,.F.);
#104 = CONICAL_SURFACE('',#105,3.,0.785398163397);
#105 = AXIS2_PLACEMENT_3D('',#106,#107,#108);
#106 = CARTESIAN_POINT('',(23.5,-3.053113317719E-15,6.5));
#107 = DIRECTION('',(1.,-2.22044604925E-16,1.110223024625E-16));
#108 = DIRECTION('',(-1.110223024625E-16,3.330669073875E-16,1.));
#109 = ADVANCED_FACE('',(#110),#129,.T.);
#110 = FACE_BOUND('',#111,.T.);
#111 = EDGE_LOOP('',(#112,#113,#121,#128));
#112 = ORIENTED_EDGE('',*,*,#97,.T.);
#113 = ORIENTED_EDGE('',*,*,#114,.T.);
#114 = EDGE_CURVE('',#90,#115,#117,.T.);
#115 = VERTEX_POINT('',#116);
#116 = CARTESIAN_POINT('',(21.5,-1.942890293094E-15,8.5));
#117 = LINE('',#118,#119);
#118 = CARTESIAN_POINT('',(22.5,-9.048317650695E-15,8.5));
#119 = VECTOR('',#120,1.);
#120 = DIRECTION('',(-1.,4.440892098501E-16,1.110223024625E-16));
#121 = ORIENTED_EDGE('',*,*,#122,.F.);
#122 = EDGE_CURVE('',#115,#115,#123,.T.);
#123 = CIRCLE('',#124,2.);
#124 = AXIS2_PLACEMENT_3D('',#125,#126,#127);
#125 = CARTESIAN_POINT('',(21.5,-2.609024107869E-15,6.5));
#126 = DIRECTION('',(-1.,2.22044604925E-16,-1.110223024625E-16));
#127 = DIRECTION('',(-1.110223024625E-16,3.330669073875E-16,1.));
#128 = ORIENTED_EDGE('',*,*,#114,.F.);
#129 = CYLINDRICAL_SURFACE('',#130,2.);
#130 = AXIS2_PLACEMENT_3D('',#131,#132,#133);
#131 = CARTESIAN_POINT('',(22.5,-2.831068712794E-15,6.5));
#132 = DIRECTION('',(-1.,2.22044604925E-16,-1.110223024625E-16));
#133 = DIRECTION('',(-1.110223024625E-16,3.330669073875E-16,1.));
#134 = ADVANCED_FACE('',(#135),#154,.T.);
#135 = FACE_BOUND('',#136,.T.);
#136 = EDGE_LOOP('',(#137,#138,#146,#153));
#137 = ORIENTED_EDGE('',*,*,#122,.T.);
#138 = ORIENTED_EDGE('',*,*,#139,.T.);
#139 = EDGE_CURVE('',#115,#140,#142,.T.);
#140 = VERTEX_POINT('',#141);
#141 = CARTESIAN_POINT('',(20.5,-1.387778780781E-15,9.5));
#142 = LINE('',#143,#144);
#143 = CARTESIAN_POINT('',(21.5,-8.604228440845E-15,8.5));
#144 = VECTOR('',#145,1.);
#145 = DIRECTION('',(-0.707106781187,3.925231146709E-16,0.707106781187)
  );
#146 = ORIENTED_EDGE('',*,*,#147,.F.);
#147 = EDGE_CURVE('',#140,#140,#148,.T.);
#148 = CIRCLE('',#149,3.);
#149 = AXIS2_PLACEMENT_3D('',#150,#151,#152);
#150 = CARTESIAN_POINT('',(20.5,-2.386979502944E-15,6.5));
#151 = DIRECTION('',(-1.,2.22044604925E-16,-1.110223024625E-16));
#152 = DIRECTION('',(-1.110223024625E-16,3.330669073875E-16,1.));
#153 = ORIENTED_EDGE('',*,*,#139,.F.);
#154 = CONICAL_SURFACE('',#155,2.,0.785398163397);
#155 = AXIS2_PLACEMENT_3D('',#156,#157,#158);
#156 = CARTESIAN_POINT('',(21.5,-2.609024107869E-15,6.5));
#157 = DIRECTION('',(-1.,2.22044604925E-16,-1.110223024625E-16));
#158 = DIRECTION('',(-1.110223024625E-16,3.330669073875E-16,1.));
#159 = ADVANCED_FACE('',(#160),#179,.T.);
#160 = FACE_BOUND('',#161,.T.);
#161 = EDGE_LOOP('',(#162,#163,#171,#178));
#162 = ORIENTED_EDGE('',*,*,#147,.T.);
#163 = ORIENTED_EDGE('',*,*,#164,.T.);
#164 = EDGE_CURVE('',#140,#165,#167,.T.);
#165 = VERTEX_POINT('',#166);
#166 = CARTESIAN_POINT('',(19.065239,-1.069197841375E-15,9.5));
#167 = LINE('',#168,#169);
#168 = CARTESIAN_POINT('',(20.5,-8.049116928532E-15,9.5));
#169 = VECTOR('',#170,1.);
#170 = DIRECTION('',(-1.,4.440892098501E-16,1.110223024625E-16));
#171 = ORIENTED_EDGE('',*,*,#172,.F.);
#172 = EDGE_CURVE('',#165,#165,#173,.T.);
#173 = CIRCLE('',#174,3.);
#174 = AXIS2_PLACEMENT_3D('',#175,#176,#177);
#175 = CARTESIAN_POINT('',(19.065239,-2.068398563537E-15,6.5));
#176 = DIRECTION('',(-1.,2.22044604925E-16,-1.110223024625E-16));
#177 = DIRECTION('',(-1.110223024625E-16,3.330669073875E-16,1.));
#178 = ORIENTED_EDGE('',*,*,#164,.F.);
#179 = CYLINDRICAL_SURFACE('',#180,3.);
#180 = AXIS2_PLACEMENT_3D('',#181,#182,#183);
#181 = CARTESIAN_POINT('',(20.5,-2.386979502944E-15,6.5));
#182 = DIRECTION('',(-1.,2.22044604925E-16,-1.110223024625E-16));
#183 = DIRECTION('',(-1.110223024625E-16,3.330669073875E-16,1.));
#184 = ADVANCED_FACE('',(#185,#188),#199,.F.);
#185 = FACE_BOUND('',#186,.T.);
#186 = EDGE_LOOP('',(#187));
#187 = ORIENTED_EDGE('',*,*,#172,.T.);
#188 = FACE_BOUND('',#189,.T.);
#189 = EDGE_LOOP('',(#190));
#190 = ORIENTED_EDGE('',*,*,#191,.F.);
#191 = EDGE_CURVE('',#192,#192,#194,.T.);
#192 = VERTEX_POINT('',#193);
#193 = CARTESIAN_POINT('',(19.065239,-1.369426017028E-15,8.598595));
#194 = CIRCLE('',#195,2.098595);
#195 = AXIS2_PLACEMENT_3D('',#196,#197,#198);
#196 = CARTESIAN_POINT('',(19.065239,-2.068398563537E-15,6.5));
#197 = DIRECTION('',(-1.,2.22044604925E-16,-1.110223024625E-16));
#198 = DIRECTION('',(-1.110223024625E-16,3.330669073875E-16,1.));
#199 = PLANE('',#200);
#200 = AXIS2_PLACEMENT_3D('',#201,#202,#203);
#201 = CARTESIAN_POINT('',(19.065239,-2.068398563537E-15,6.5));
#202 = DIRECTION('',(1.,-2.22044604925E-16,1.110223024625E-16));
#203 = DIRECTION('',(1.110223024625E-16,-3.330669073875E-16,-1.));
#204 = ADVANCED_FACE('',(#205),#224,.T.);
#205 = FACE_BOUND('',#206,.T.);
#206 = EDGE_LOOP('',(#207,#208,#216,#223));
#207 = ORIENTED_EDGE('',*,*,#191,.T.);
#208 = ORIENTED_EDGE('',*,*,#209,.T.);
#209 = EDGE_CURVE('',#192,#210,#212,.T.);
#210 = VERTEX_POINT('',#211);
#211 = CARTESIAN_POINT('',(17.5,-1.02187314166E-15,8.598595));
#212 = LINE('',#213,#214);
#213 = CARTESIAN_POINT('',(19.065239,-7.51203110827E-15,8.598595));
#214 = VECTOR('',#215,1.);
#215 = DIRECTION('',(-1.,4.440892098501E-16,1.110223024625E-16));
#216 = ORIENTED_EDGE('',*,*,#217,.F.);
#217 = EDGE_CURVE('',#210,#210,#218,.T.);
#218 = CIRCLE('',#219,2.098595);
#219 = AXIS2_PLACEMENT_3D('',#220,#221,#222);
#220 = CARTESIAN_POINT('',(17.5,-1.720845688169E-15,6.5));
#221 = DIRECTION('',(-1.,2.22044604925E-16,-1.110223024625E-16));
#222 = DIRECTION('',(-1.110223024625E-16,3.330669073875E-16,1.));
#223 = ORIENTED_EDGE('',*,*,#209,.F.);
#224 = CYLINDRICAL_SURFACE('',#225,2.098595);
#225 = AXIS2_PLACEMENT_3D('',#226,#227,#228);
#226 = CARTESIAN_POINT('',(19.065239,-2.068398563537E-15,6.5));
#227 = DIRECTION('',(-1.,2.22044604925E-16,-1.110223024625E-16));
#228 = DIRECTION('',(-1.110223024625E-16,3.330669073875E-16,1.));
#229 = ADVANCED_FACE('',(#230,#233),#244,.F.);
#230 = FACE_BOUND('',#231,.T.);
#231 = EDGE_LOOP('',(#232));
#232 = ORIENTED_EDGE('',*,*,#217,.T.);
#233 = FACE_BOUND('',#234,.T.);
#234 = EDGE_LOOP('',(#235));
#235 = ORIENTED_EDGE('',*,*,#236,.F.);
#236 = EDGE_CURVE('',#237,#237,#239,.T.);
#237 = VERTEX_POINT('',#238);
#238 = CARTESIAN_POINT('',(17.5,-5.551115123126E-16,10.));
#239 = CIRCLE('',#240,3.5);
#240 = AXIS2_PLACEMENT_3D('',#241,#242,#243);
#241 = CARTESIAN_POINT('',(17.5,-1.720845688169E-15,6.5));
#242 = DIRECTION('',(-1.,2.22044604925E-16,-1.110223024625E-16));
#243 = DIRECTION('',(-1.110223024625E-16,3.330669073875E-16,1.));
#244 = PLANE('',#245);
#245 = AXIS2_PLACEMENT_3D('',#246,#247,#248);
#246 = CARTESIAN_POINT('',(17.5,-1.720845688169E-15,6.5));
#247 = DIRECTION('',(-1.,2.22044604925E-16,-1.110223024625E-16));
#248 = DIRECTION('',(-1.110223024625E-16,3.330669073875E-16,1.));
#249 = ADVANCED_FACE('',(#250),#269,.T.);
#250 = FACE_BOUND('',#251,.T.);
#251 = EDGE_LOOP('',(#252,#260,#261,#262));
#252 = ORIENTED_EDGE('',*,*,#253,.F.);
#253 = EDGE_CURVE('',#237,#254,#256,.T.);
#254 = VERTEX_POINT('',#255);
#255 = CARTESIAN_POINT('',(12.5,5.551115123126E-16,10.));
#256 = LINE('',#257,#258);
#257 = CARTESIAN_POINT('',(17.5,-6.661338147751E-15,10.));
#258 = VECTOR('',#259,1.);
#259 = DIRECTION('',(-1.,4.440892098501E-16,1.110223024625E-16));
#260 = ORIENTED_EDGE('',*,*,#236,.T.);
#261 = ORIENTED_EDGE('',*,*,#253,.T.);
#262 = ORIENTED_EDGE('',*,*,#263,.F.);
#263 = EDGE_CURVE('',#254,#254,#264,.T.);
#264 = CIRCLE('',#265,3.5);
#265 = AXIS2_PLACEMENT_3D('',#266,#267,#268);
#266 = CARTESIAN_POINT('',(12.5,-6.106226635438E-16,6.5));
#267 = DIRECTION('',(-1.,2.22044604925E-16,-1.110223024625E-16));
#268 = DIRECTION('',(-1.110223024625E-16,3.330669073875E-16,1.));
#269 = CYLINDRICAL_SURFACE('',#270,3.5);
#270 = AXIS2_PLACEMENT_3D('',#271,#272,#273);
#271 = CARTESIAN_POINT('',(17.5,-1.720845688169E-15,6.5));
#272 = DIRECTION('',(-1.,2.22044604925E-16,-1.110223024625E-16));
#273 = DIRECTION('',(-1.110223024625E-16,3.330669073875E-16,1.));
#274 = ADVANCED_FACE('',(#275,#309),#312,.T.);
#275 = FACE_BOUND('',#276,.T.);
#276 = EDGE_LOOP('',(#277,#287,#295,#303));
#277 = ORIENTED_EDGE('',*,*,#278,.T.);
#278 = EDGE_CURVE('',#279,#281,#283,.T.);
#279 = VERTEX_POINT('',#280);
#280 = CARTESIAN_POINT('',(12.5,-4.85,9.009459844833E-15));
#281 = VERTEX_POINT('',#282);
#282 = CARTESIAN_POINT('',(12.5,4.85,-6.827871601445E-16));
#283 = LINE('',#284,#285);
#284 = CARTESIAN_POINT('',(12.5,-4.85,-1.42108547152E-14));
#285 = VECTOR('',#286,1.);
#286 = DIRECTION('',(-6.661338147751E-16,1.,-1.665334536938E-15));
#287 = ORIENTED_EDGE('',*,*,#288,.T.);
#288 = EDGE_CURVE('',#281,#289,#291,.T.);
#289 = VERTEX_POINT('',#290);
#290 = CARTESIAN_POINT('',(12.5,4.85,11.35));
#291 = LINE('',#292,#293);
#292 = CARTESIAN_POINT('',(12.5,4.85,-2.84217094304E-14));
#293 = VECTOR('',#294,1.);
#294 = DIRECTION('',(-1.665334536938E-15,-3.330669073875E-16,1.));
#295 = ORIENTED_EDGE('',*,*,#296,.T.);
#296 = EDGE_CURVE('',#289,#297,#299,.T.);
#297 = VERTEX_POINT('',#298);
#298 = CARTESIAN_POINT('',(12.5,-4.85,11.35));
#299 = LINE('',#300,#301);
#300 = CARTESIAN_POINT('',(12.5,4.85,11.35));
#301 = VECTOR('',#302,1.);
#302 = DIRECTION('',(6.661338147751E-16,-1.,1.665334536938E-15));
#303 = ORIENTED_EDGE('',*,*,#304,.T.);
#304 = EDGE_CURVE('',#297,#279,#305,.T.);
#305 = LINE('',#306,#307);
#306 = CARTESIAN_POINT('',(12.5,-4.85,11.35));
#307 = VECTOR('',#308,1.);
#308 = DIRECTION('',(1.665334536938E-15,3.330669073875E-16,-1.));
#309 = FACE_BOUND('',#310,.T.);
#310 = EDGE_LOOP('',(#311));
#311 = ORIENTED_EDGE('',*,*,#263,.T.);
#312 = PLANE('',#313);
#313 = AXIS2_PLACEMENT_3D('',#314,#315,#316);
#314 = CARTESIAN_POINT('',(12.5,-1.122947736382E-14,5.675));
#315 = DIRECTION('',(1.,-1.33226762955E-15,-3.330669073875E-16));
#316 = DIRECTION('',(-1.665334536938E-15,-3.330669073875E-16,1.));
#317 = ADVANCED_FACE('',(#318,#343,#377,#411,#445,#479),#513,.F.);
#318 = FACE_BOUND('',#319,.F.);
#319 = EDGE_LOOP('',(#320,#328,#329,#337));
#320 = ORIENTED_EDGE('',*,*,#321,.T.);
#321 = EDGE_CURVE('',#322,#279,#324,.T.);
#322 = VERTEX_POINT('',#323);
#323 = CARTESIAN_POINT('',(-1.972152263053E-30,-4.85,4.846123502489E-15)
  );
#324 = LINE('',#325,#326);
#325 = CARTESIAN_POINT('',(2.153832667773E-15,-4.85,6.999956170262E-15)
  );
#326 = VECTOR('',#327,1.);
#327 = DIRECTION('',(1.,-1.110223024625E-15,-1.110223024625E-16));
#328 = ORIENTED_EDGE('',*,*,#278,.T.);
#329 = ORIENTED_EDGE('',*,*,#330,.F.);
#330 = EDGE_CURVE('',#331,#281,#333,.T.);
#331 = VERTEX_POINT('',#332);
#332 = CARTESIAN_POINT('',(1.972152263053E-30,4.85,-4.846123502489E-15)
  );
#333 = LINE('',#334,#335);
#334 = CARTESIAN_POINT('',(-2.153832667773E-15,4.85,-6.999956170262E-15)
  );
#335 = VECTOR('',#336,1.);
#336 = DIRECTION('',(1.,-1.110223024625E-15,-1.110223024625E-16));
#337 = ORIENTED_EDGE('',*,*,#338,.F.);
#338 = EDGE_CURVE('',#322,#331,#339,.T.);
#339 = LINE('',#340,#341);
#340 = CARTESIAN_POINT('',(3.230749001659E-15,-4.85,8.076872504148E-15)
  );
#341 = VECTOR('',#342,1.);
#342 = DIRECTION('',(-6.661338147751E-16,1.,-1.665334536938E-15));
#343 = FACE_BOUND('',#344,.F.);
#344 = EDGE_LOOP('',(#345,#355,#363,#371));
#345 = ORIENTED_EDGE('',*,*,#346,.T.);
#346 = EDGE_CURVE('',#347,#349,#351,.T.);
#347 = VERTEX_POINT('',#348);
#348 = CARTESIAN_POINT('',(7.6,-2.950000000016,3.652633751028E-15));
#349 = VERTEX_POINT('',#350);
#350 = CARTESIAN_POINT('',(7.4,-2.950000000016,3.608224830043E-15));
#351 = LINE('',#352,#353);
#352 = CARTESIAN_POINT('',(7.6,-2.950000000016,1.587618925232E-15));
#353 = VECTOR('',#354,1.);
#354 = DIRECTION('',(-1.,1.110223024625E-15,2.22044604925E-16));
#355 = ORIENTED_EDGE('',*,*,#356,.T.);
#356 = EDGE_CURVE('',#349,#357,#359,.T.);
#357 = VERTEX_POINT('',#358);
#358 = CARTESIAN_POINT('',(7.4,-2.050000000016,3.008704396745E-15));
#359 = LINE('',#360,#361);
#360 = CARTESIAN_POINT('',(7.4,-2.950000000016,1.632027846217E-15));
#361 = VECTOR('',#362,1.);
#362 = DIRECTION('',(-2.22044604925E-16,1.,-1.110223024625E-15));
#363 = ORIENTED_EDGE('',*,*,#364,.T.);
#364 = EDGE_CURVE('',#357,#365,#367,.T.);
#365 = VERTEX_POINT('',#366);
#366 = CARTESIAN_POINT('',(7.6,-2.050000000016,3.05311331773E-15));
#367 = LINE('',#368,#369);
#368 = CARTESIAN_POINT('',(7.4,-2.050000000016,6.328271240546E-16));
#369 = VECTOR('',#370,1.);
#370 = DIRECTION('',(1.,-1.110223024625E-15,-2.22044604925E-16));
#371 = ORIENTED_EDGE('',*,*,#372,.T.);
#372 = EDGE_CURVE('',#365,#347,#373,.T.);
#373 = LINE('',#374,#375);
#374 = CARTESIAN_POINT('',(7.6,-2.050000000016,5.884182030696E-16));
#375 = VECTOR('',#376,1.);
#376 = DIRECTION('',(2.22044604925E-16,-1.,1.110223024625E-15));
#377 = FACE_BOUND('',#378,.F.);
#378 = EDGE_LOOP('',(#379,#389,#397,#405));
#379 = ORIENTED_EDGE('',*,*,#380,.T.);
#380 = EDGE_CURVE('',#381,#383,#385,.T.);
#381 = VERTEX_POINT('',#382);
#382 = CARTESIAN_POINT('',(7.6,-0.45,1.987299214079E-15));
#383 = VERTEX_POINT('',#384);
#384 = CARTESIAN_POINT('',(7.4,-0.45,1.942890293094E-15));
#385 = LINE('',#386,#387);
#386 = CARTESIAN_POINT('',(7.6,-0.45,-1.187938636349E-15));
#387 = VECTOR('',#388,1.);
#388 = DIRECTION('',(-1.,1.110223024625E-15,2.22044604925E-16));
#389 = ORIENTED_EDGE('',*,*,#390,.T.);
#390 = EDGE_CURVE('',#383,#391,#393,.T.);
#391 = VERTEX_POINT('',#392);
#392 = CARTESIAN_POINT('',(7.4,0.45,1.343369859796E-15));
#393 = LINE('',#394,#395);
#394 = CARTESIAN_POINT('',(7.4,-0.45,-1.143529715364E-15));
#395 = VECTOR('',#396,1.);
#396 = DIRECTION('',(-2.22044604925E-16,1.,-1.110223024625E-15));
#397 = ORIENTED_EDGE('',*,*,#398,.T.);
#398 = EDGE_CURVE('',#391,#399,#401,.T.);
#399 = VERTEX_POINT('',#400);
#400 = CARTESIAN_POINT('',(7.6,0.45,1.387778780781E-15));
#401 = LINE('',#402,#403);
#402 = CARTESIAN_POINT('',(7.4,0.45,-2.142730437527E-15));
#403 = VECTOR('',#404,1.);
#404 = DIRECTION('',(1.,-1.110223024625E-15,-2.22044604925E-16));
#405 = ORIENTED_EDGE('',*,*,#406,.T.);
#406 = EDGE_CURVE('',#399,#381,#407,.T.);
#407 = LINE('',#408,#409);
#408 = CARTESIAN_POINT('',(7.6,0.45,-2.187139358512E-15));
#409 = VECTOR('',#410,1.);
#410 = DIRECTION('',(2.22044604925E-16,-1.,1.110223024625E-15));
#411 = FACE_BOUND('',#412,.F.);
#412 = EDGE_LOOP('',(#413,#423,#431,#439));
#413 = ORIENTED_EDGE('',*,*,#414,.T.);
#414 = EDGE_CURVE('',#415,#417,#419,.T.);
#415 = VERTEX_POINT('',#416);
#416 = CARTESIAN_POINT('',(7.6,2.050000000033,3.219646771193E-16));
#417 = VERTEX_POINT('',#418);
#418 = CARTESIAN_POINT('',(7.4,2.050000000033,2.775557561343E-16));
#419 = LINE('',#420,#421);
#420 = CARTESIAN_POINT('',(7.6,2.050000000033,-3.963496197948E-15));
#421 = VECTOR('',#422,1.);
#422 = DIRECTION('',(-1.,1.110223024625E-15,2.22044604925E-16));
#423 = ORIENTED_EDGE('',*,*,#424,.T.);
#424 = EDGE_CURVE('',#417,#425,#427,.T.);
#425 = VERTEX_POINT('',#426);
#426 = CARTESIAN_POINT('',(7.4,2.950000000033,-3.219646771633E-16));
#427 = LINE('',#428,#429);
#428 = CARTESIAN_POINT('',(7.4,2.050000000033,-3.919087276963E-15));
#429 = VECTOR('',#430,1.);
#430 = DIRECTION('',(-2.22044604925E-16,1.,-1.110223024625E-15));
#431 = ORIENTED_EDGE('',*,*,#432,.T.);
#432 = EDGE_CURVE('',#425,#433,#435,.T.);
#433 = VERTEX_POINT('',#434);
#434 = CARTESIAN_POINT('',(7.6,2.950000000033,-2.775557561782E-16));
#435 = LINE('',#436,#437);
#436 = CARTESIAN_POINT('',(7.4,2.950000000033,-4.918287999126E-15));
#437 = VECTOR('',#438,1.);
#438 = DIRECTION('',(1.,-1.110223024625E-15,-2.22044604925E-16));
#439 = ORIENTED_EDGE('',*,*,#440,.T.);
#440 = EDGE_CURVE('',#433,#415,#441,.T.);
#441 = LINE('',#442,#443);
#442 = CARTESIAN_POINT('',(7.6,2.950000000033,-4.962696920111E-15));
#443 = VECTOR('',#444,1.);
#444 = DIRECTION('',(2.22044604925E-16,-1.,1.110223024625E-15));
#445 = FACE_BOUND('',#446,.F.);
#446 = EDGE_LOOP('',(#447,#457,#465,#473));
#447 = ORIENTED_EDGE('',*,*,#448,.T.);
#448 = EDGE_CURVE('',#449,#451,#453,.T.);
#449 = VERTEX_POINT('',#450);
#450 = CARTESIAN_POINT('',(2.6,-2.05,1.942890293094E-15));
#451 = VERTEX_POINT('',#452);
#452 = CARTESIAN_POINT('',(2.6,-2.950000000016,2.542410726403E-15));
#453 = LINE('',#454,#455);
#454 = CARTESIAN_POINT('',(2.6,-2.05,1.698641227676E-15));
#455 = VECTOR('',#456,1.);
#456 = DIRECTION('',(2.22044604925E-16,-1.,1.110223024625E-15));
#457 = ORIENTED_EDGE('',*,*,#458,.T.);
#458 = EDGE_CURVE('',#451,#459,#461,.T.);
#459 = VERTEX_POINT('',#460);
#460 = CARTESIAN_POINT('',(2.4,-2.950000000016,2.498001805418E-15));
#461 = LINE('',#462,#463);
#462 = CARTESIAN_POINT('',(2.6,-2.950000000016,2.697841949857E-15));
#463 = VECTOR('',#464,1.);
#464 = DIRECTION('',(-1.,1.110223024625E-15,2.22044604925E-16));
#465 = ORIENTED_EDGE('',*,*,#466,.T.);
#466 = EDGE_CURVE('',#459,#467,#469,.T.);
#467 = VERTEX_POINT('',#468);
#468 = CARTESIAN_POINT('',(2.4,-2.05,1.898481372109E-15));
#469 = LINE('',#470,#471);
#470 = CARTESIAN_POINT('',(2.4,-2.950000000016,2.742250870842E-15));
#471 = VECTOR('',#472,1.);
#472 = DIRECTION('',(-2.22044604925E-16,1.,-1.110223024625E-15));
#473 = ORIENTED_EDGE('',*,*,#474,.T.);
#474 = EDGE_CURVE('',#467,#449,#475,.T.);
#475 = LINE('',#476,#477);
#476 = CARTESIAN_POINT('',(2.4,-2.05,1.743050148661E-15));
#477 = VECTOR('',#478,1.);
#478 = DIRECTION('',(1.,-1.110223024625E-15,-2.22044604925E-16));
#479 = FACE_BOUND('',#480,.F.);
#480 = EDGE_LOOP('',(#481,#491,#499,#507));
#481 = ORIENTED_EDGE('',*,*,#482,.T.);
#482 = EDGE_CURVE('',#483,#485,#487,.T.);
#483 = VERTEX_POINT('',#484);
#484 = CARTESIAN_POINT('',(2.6,2.950000000033,-1.387778780803E-15));
#485 = VERTEX_POINT('',#486);
#486 = CARTESIAN_POINT('',(2.6,2.05,-7.882583474839E-16));
#487 = LINE('',#488,#489);
#488 = CARTESIAN_POINT('',(2.6,2.950000000033,-3.852473895486E-15));
#489 = VECTOR('',#490,1.);
#490 = DIRECTION('',(2.22044604925E-16,-1.,1.110223024625E-15));
#491 = ORIENTED_EDGE('',*,*,#492,.T.);
#492 = EDGE_CURVE('',#485,#493,#495,.T.);
#493 = VERTEX_POINT('',#494);
#494 = CARTESIAN_POINT('',(2.400000000016,2.05,-8.326672684652E-16));
#495 = LINE('',#496,#497);
#496 = CARTESIAN_POINT('',(2.6,2.05,-2.853273173287E-15));
#497 = VECTOR('',#498,1.);
#498 = DIRECTION('',(-1.,1.110223024625E-15,2.22044604925E-16));
#499 = ORIENTED_EDGE('',*,*,#500,.T.);
#500 = EDGE_CURVE('',#493,#501,#503,.T.);
#501 = VERTEX_POINT('',#502);
#502 = CARTESIAN_POINT('',(2.400000000016,2.950000000033,
    -1.432187701785E-15));
#503 = LINE('',#504,#505);
#504 = CARTESIAN_POINT('',(2.400000000016,2.05,-2.808864252305E-15));
#505 = VECTOR('',#506,1.);
#506 = DIRECTION('',(-2.22044604925E-16,1.,-1.110223024625E-15));
#507 = ORIENTED_EDGE('',*,*,#508,.T.);
#508 = EDGE_CURVE('',#501,#483,#509,.T.);
#509 = LINE('',#510,#511);
#510 = CARTESIAN_POINT('',(2.400000000016,2.950000000033,
    -3.808064974505E-15));
#511 = VECTOR('',#512,1.);
#512 = DIRECTION('',(1.,-1.110223024625E-15,-2.22044604925E-16));
#513 = PLANE('',#514);
#514 = AXIS2_PLACEMENT_3D('',#515,#516,#517);
#515 = CARTESIAN_POINT('',(2.153832667773E-15,-4.85,6.999956170262E-15)
  );
#516 = DIRECTION('',(-1.221245327088E-15,1.110223024625E-16,1.));
#517 = DIRECTION('',(-4.440892098501E-16,1.,-1.443289932013E-15));
#518 = ADVANCED_FACE('',(#519),#537,.F.);
#519 = FACE_BOUND('',#520,.F.);
#520 = EDGE_LOOP('',(#521,#529,#530,#531));
#521 = ORIENTED_EDGE('',*,*,#522,.T.);
#522 = EDGE_CURVE('',#523,#297,#525,.T.);
#523 = VERTEX_POINT('',#524);
#524 = CARTESIAN_POINT('',(-1.134092819655E-14,-4.85,11.35));
#525 = LINE('',#526,#527);
#526 = CARTESIAN_POINT('',(-1.422750806057E-14,-4.85,11.35));
#527 = VECTOR('',#528,1.);
#528 = DIRECTION('',(1.,-1.110223024625E-15,-1.110223024625E-16));
#529 = ORIENTED_EDGE('',*,*,#304,.T.);
#530 = ORIENTED_EDGE('',*,*,#321,.F.);
#531 = ORIENTED_EDGE('',*,*,#532,.F.);
#532 = EDGE_CURVE('',#523,#322,#533,.T.);
#533 = LINE('',#534,#535);
#534 = CARTESIAN_POINT('',(-1.567079799258E-14,-4.85,11.35));
#535 = VECTOR('',#536,1.);
#536 = DIRECTION('',(1.665334536938E-15,3.330669073875E-16,-1.));
#537 = PLANE('',#538);
#538 = AXIS2_PLACEMENT_3D('',#539,#540,#541);
#539 = CARTESIAN_POINT('',(-1.422750806057E-14,-4.85,11.35));
#540 = DIRECTION('',(-2.22044604925E-16,1.,-1.221245327088E-15));
#541 = DIRECTION('',(1.443289932013E-15,1.110223024625E-16,-1.));
#542 = ADVANCED_FACE('',(#543),#561,.F.);
#543 = FACE_BOUND('',#544,.F.);
#544 = EDGE_LOOP('',(#545,#546,#547,#555));
#545 = ORIENTED_EDGE('',*,*,#330,.T.);
#546 = ORIENTED_EDGE('',*,*,#288,.T.);
#547 = ORIENTED_EDGE('',*,*,#548,.F.);
#548 = EDGE_CURVE('',#549,#289,#551,.T.);
#549 = VERTEX_POINT('',#550);
#550 = CARTESIAN_POINT('',(-1.134092819655E-14,4.85,11.35));
#551 = LINE('',#552,#553);
#552 = CARTESIAN_POINT('',(-1.853517339612E-14,4.85,11.35));
#553 = VECTOR('',#554,1.);
#554 = DIRECTION('',(1.,-1.110223024625E-15,-1.110223024625E-16));
#555 = ORIENTED_EDGE('',*,*,#556,.F.);
#556 = EDGE_CURVE('',#331,#549,#557,.T.);
#557 = LINE('',#558,#559);
#558 = CARTESIAN_POINT('',(-3.230749001659E-15,4.85,-8.076872504148E-15)
  );
#559 = VECTOR('',#560,1.);
#560 = DIRECTION('',(-1.665334536938E-15,-3.330669073875E-16,1.));
#561 = PLANE('',#562);
#562 = AXIS2_PLACEMENT_3D('',#563,#564,#565);
#563 = CARTESIAN_POINT('',(-2.153832667773E-15,4.85,-6.999956170262E-15)
  );
#564 = DIRECTION('',(2.22044604925E-16,-1.,1.221245327088E-15));
#565 = DIRECTION('',(-1.443289932013E-15,-1.110223024625E-16,1.));
#566 = ADVANCED_FACE('',(#567),#578,.F.);
#567 = FACE_BOUND('',#568,.F.);
#568 = EDGE_LOOP('',(#569,#570,#571,#572));
#569 = ORIENTED_EDGE('',*,*,#548,.T.);
#570 = ORIENTED_EDGE('',*,*,#296,.T.);
#571 = ORIENTED_EDGE('',*,*,#522,.F.);
#572 = ORIENTED_EDGE('',*,*,#573,.F.);
#573 = EDGE_CURVE('',#549,#523,#574,.T.);
#574 = LINE('',#575,#576);
#575 = CARTESIAN_POINT('',(-2.21322959959E-14,4.85,11.35));
#576 = VECTOR('',#577,1.);
#577 = DIRECTION('',(6.661338147751E-16,-1.,1.665334536938E-15));
#578 = PLANE('',#579);
#579 = AXIS2_PLACEMENT_3D('',#580,#581,#582);
#580 = CARTESIAN_POINT('',(-1.853517339612E-14,4.85,11.35));
#581 = DIRECTION('',(1.221245327088E-15,-1.110223024625E-16,-1.));
#582 = DIRECTION('',(4.440892098501E-16,-1.,1.443289932013E-15));
#583 = ADVANCED_FACE('',(#584),#590,.F.);
#584 = FACE_BOUND('',#585,.F.);
#585 = EDGE_LOOP('',(#586,#587,#588,#589));
#586 = ORIENTED_EDGE('',*,*,#338,.T.);
#587 = ORIENTED_EDGE('',*,*,#556,.T.);
#588 = ORIENTED_EDGE('',*,*,#573,.T.);
#589 = ORIENTED_EDGE('',*,*,#532,.T.);
#590 = PLANE('',#591);
#591 = AXIS2_PLACEMENT_3D('',#592,#593,#594);
#592 = CARTESIAN_POINT('',(-9.450773497122E-15,-2.90280467913E-15,5.675)
  );
#593 = DIRECTION('',(1.,-1.33226762955E-15,-3.330669073875E-16));
#594 = DIRECTION('',(-1.665334536938E-15,-3.330669073875E-16,1.));
#595 = ADVANCED_FACE('',(#596),#621,.F.);
#596 = FACE_BOUND('',#597,.F.);
#597 = EDGE_LOOP('',(#598,#606,#614,#620));
#598 = ORIENTED_EDGE('',*,*,#599,.T.);
#599 = EDGE_CURVE('',#347,#600,#602,.T.);
#600 = VERTEX_POINT('',#601);
#601 = CARTESIAN_POINT('',(7.6,-2.950000000016,-3.5));
#602 = LINE('',#603,#604);
#603 = CARTESIAN_POINT('',(7.6,-2.950000000016,2.62012633813E-15));
#604 = VECTOR('',#605,1.);
#605 = DIRECTION('',(8.881784197001E-16,-2.958228394579E-31,-1.));
#606 = ORIENTED_EDGE('',*,*,#607,.T.);
#607 = EDGE_CURVE('',#600,#608,#610,.T.);
#608 = VERTEX_POINT('',#609);
#609 = CARTESIAN_POINT('',(7.4,-2.950000000016,-3.5));
#610 = LINE('',#611,#612);
#611 = CARTESIAN_POINT('',(7.6,-2.950000000016,-3.5));
#612 = VECTOR('',#613,1.);
#613 = DIRECTION('',(-1.,1.110223024625E-15,2.22044604925E-16));
#614 = ORIENTED_EDGE('',*,*,#615,.F.);
#615 = EDGE_CURVE('',#349,#608,#616,.T.);
#616 = LINE('',#617,#618);
#617 = CARTESIAN_POINT('',(7.4,-2.950000000016,2.62012633813E-15));
#618 = VECTOR('',#619,1.);
#619 = DIRECTION('',(8.881784197001E-16,-2.958228394579E-31,-1.));
#620 = ORIENTED_EDGE('',*,*,#346,.F.);
#621 = PLANE('',#622);
#622 = AXIS2_PLACEMENT_3D('',#623,#624,#625);
#623 = CARTESIAN_POINT('',(7.6,-2.950000000016,2.62012633813E-15));
#624 = DIRECTION('',(2.22044604925E-16,1.,-6.661338147751E-16));
#625 = DIRECTION('',(-1.,8.881784197001E-16,-5.546678239835E-31));
#626 = ADVANCED_FACE('',(#627),#645,.F.);
#627 = FACE_BOUND('',#628,.F.);
#628 = EDGE_LOOP('',(#629,#637,#643,#644));
#629 = ORIENTED_EDGE('',*,*,#630,.T.);
#630 = EDGE_CURVE('',#365,#631,#633,.T.);
#631 = VERTEX_POINT('',#632);
#632 = CARTESIAN_POINT('',(7.6,-2.050000000016,-3.5));
#633 = LINE('',#634,#635);
#634 = CARTESIAN_POINT('',(7.6,-2.050000000016,1.8207657604E-15));
#635 = VECTOR('',#636,1.);
#636 = DIRECTION('',(8.881784197001E-16,-2.958228394579E-31,-1.));
#637 = ORIENTED_EDGE('',*,*,#638,.T.);
#638 = EDGE_CURVE('',#631,#600,#639,.T.);
#639 = LINE('',#640,#641);
#640 = CARTESIAN_POINT('',(7.6,-2.050000000016,-3.5));
#641 = VECTOR('',#642,1.);
#642 = DIRECTION('',(2.22044604925E-16,-1.,1.110223024625E-15));
#643 = ORIENTED_EDGE('',*,*,#599,.F.);
#644 = ORIENTED_EDGE('',*,*,#372,.F.);
#645 = PLANE('',#646);
#646 = AXIS2_PLACEMENT_3D('',#647,#648,#649);
#647 = CARTESIAN_POINT('',(7.6,-2.050000000016,1.8207657604E-15));
#648 = DIRECTION('',(-1.,6.661338147751E-16,-2.22044604925E-16));
#649 = DIRECTION('',(-3.451266460342E-31,-1.,8.881784197001E-16));
#650 = ADVANCED_FACE('',(#651),#669,.F.);
#651 = FACE_BOUND('',#652,.F.);
#652 = EDGE_LOOP('',(#653,#661,#667,#668));
#653 = ORIENTED_EDGE('',*,*,#654,.T.);
#654 = EDGE_CURVE('',#357,#655,#657,.T.);
#655 = VERTEX_POINT('',#656);
#656 = CARTESIAN_POINT('',(7.4,-2.050000000016,-3.5));
#657 = LINE('',#658,#659);
#658 = CARTESIAN_POINT('',(7.4,-2.050000000016,1.8207657604E-15));
#659 = VECTOR('',#660,1.);
#660 = DIRECTION('',(8.881784197001E-16,-2.958228394579E-31,-1.));
#661 = ORIENTED_EDGE('',*,*,#662,.T.);
#662 = EDGE_CURVE('',#655,#631,#663,.T.);
#663 = LINE('',#664,#665);
#664 = CARTESIAN_POINT('',(7.4,-2.050000000016,-3.5));
#665 = VECTOR('',#666,1.);
#666 = DIRECTION('',(1.,-1.110223024625E-15,-2.22044604925E-16));
#667 = ORIENTED_EDGE('',*,*,#630,.F.);
#668 = ORIENTED_EDGE('',*,*,#364,.F.);
#669 = PLANE('',#670);
#670 = AXIS2_PLACEMENT_3D('',#671,#672,#673);
#671 = CARTESIAN_POINT('',(7.4,-2.050000000016,1.8207657604E-15));
#672 = DIRECTION('',(-2.22044604925E-16,-1.,6.661338147751E-16));
#673 = DIRECTION('',(1.,-8.881784197001E-16,5.546678239835E-31));
#674 = ADVANCED_FACE('',(#675),#686,.F.);
#675 = FACE_BOUND('',#676,.F.);
#676 = EDGE_LOOP('',(#677,#678,#684,#685));
#677 = ORIENTED_EDGE('',*,*,#615,.T.);
#678 = ORIENTED_EDGE('',*,*,#679,.T.);
#679 = EDGE_CURVE('',#608,#655,#680,.T.);
#680 = LINE('',#681,#682);
#681 = CARTESIAN_POINT('',(7.4,-2.950000000016,-3.5));
#682 = VECTOR('',#683,1.);
#683 = DIRECTION('',(-2.22044604925E-16,1.,-1.110223024625E-15));
#684 = ORIENTED_EDGE('',*,*,#654,.F.);
#685 = ORIENTED_EDGE('',*,*,#356,.F.);
#686 = PLANE('',#687);
#687 = AXIS2_PLACEMENT_3D('',#688,#689,#690);
#688 = CARTESIAN_POINT('',(7.4,-2.950000000016,2.62012633813E-15));
#689 = DIRECTION('',(1.,-6.661338147751E-16,2.22044604925E-16));
#690 = DIRECTION('',(3.451266460342E-31,1.,-8.881784197001E-16));
#691 = ADVANCED_FACE('',(#692),#717,.F.);
#692 = FACE_BOUND('',#693,.F.);
#693 = EDGE_LOOP('',(#694,#702,#710,#716));
#694 = ORIENTED_EDGE('',*,*,#695,.T.);
#695 = EDGE_CURVE('',#381,#696,#698,.T.);
#696 = VERTEX_POINT('',#697);
#697 = CARTESIAN_POINT('',(7.6,-0.45,-3.5));
#698 = LINE('',#699,#700);
#699 = CARTESIAN_POINT('',(7.6,-0.45,3.996802888651E-16));
#700 = VECTOR('',#701,1.);
#701 = DIRECTION('',(8.881784197001E-16,-2.958228394579E-31,-1.));
#702 = ORIENTED_EDGE('',*,*,#703,.T.);
#703 = EDGE_CURVE('',#696,#704,#706,.T.);
#704 = VERTEX_POINT('',#705);
#705 = CARTESIAN_POINT('',(7.4,-0.45,-3.5));
#706 = LINE('',#707,#708);
#707 = CARTESIAN_POINT('',(7.6,-0.45,-3.5));
#708 = VECTOR('',#709,1.);
#709 = DIRECTION('',(-1.,1.110223024625E-15,2.22044604925E-16));
#710 = ORIENTED_EDGE('',*,*,#711,.F.);
#711 = EDGE_CURVE('',#383,#704,#712,.T.);
#712 = LINE('',#713,#714);
#713 = CARTESIAN_POINT('',(7.4,-0.45,3.996802888651E-16));
#714 = VECTOR('',#715,1.);
#715 = DIRECTION('',(8.881784197001E-16,-2.958228394579E-31,-1.));
#716 = ORIENTED_EDGE('',*,*,#380,.F.);
#717 = PLANE('',#718);
#718 = AXIS2_PLACEMENT_3D('',#719,#720,#721);
#719 = CARTESIAN_POINT('',(7.6,-0.45,3.996802888651E-16));
#720 = DIRECTION('',(2.22044604925E-16,1.,-6.661338147751E-16));
#721 = DIRECTION('',(-1.,8.881784197001E-16,-5.546678239835E-31));
#722 = ADVANCED_FACE('',(#723),#741,.F.);
#723 = FACE_BOUND('',#724,.F.);
#724 = EDGE_LOOP('',(#725,#733,#739,#740));
#725 = ORIENTED_EDGE('',*,*,#726,.T.);
#726 = EDGE_CURVE('',#399,#727,#729,.T.);
#727 = VERTEX_POINT('',#728);
#728 = CARTESIAN_POINT('',(7.6,0.45,-3.5));
#729 = LINE('',#730,#731);
#730 = CARTESIAN_POINT('',(7.6,0.45,-3.996802888651E-16));
#731 = VECTOR('',#732,1.);
#732 = DIRECTION('',(8.881784197001E-16,-2.958228394579E-31,-1.));
#733 = ORIENTED_EDGE('',*,*,#734,.T.);
#734 = EDGE_CURVE('',#727,#696,#735,.T.);
#735 = LINE('',#736,#737);
#736 = CARTESIAN_POINT('',(7.6,0.45,-3.5));
#737 = VECTOR('',#738,1.);
#738 = DIRECTION('',(2.22044604925E-16,-1.,1.110223024625E-15));
#739 = ORIENTED_EDGE('',*,*,#695,.F.);
#740 = ORIENTED_EDGE('',*,*,#406,.F.);
#741 = PLANE('',#742);
#742 = AXIS2_PLACEMENT_3D('',#743,#744,#745);
#743 = CARTESIAN_POINT('',(7.6,0.45,-3.996802888651E-16));
#744 = DIRECTION('',(-1.,6.661338147751E-16,-2.22044604925E-16));
#745 = DIRECTION('',(-3.451266460342E-31,-1.,8.881784197001E-16));
#746 = ADVANCED_FACE('',(#747),#765,.F.);
#747 = FACE_BOUND('',#748,.F.);
#748 = EDGE_LOOP('',(#749,#757,#763,#764));
#749 = ORIENTED_EDGE('',*,*,#750,.T.);
#750 = EDGE_CURVE('',#391,#751,#753,.T.);
#751 = VERTEX_POINT('',#752);
#752 = CARTESIAN_POINT('',(7.4,0.45,-3.5));
#753 = LINE('',#754,#755);
#754 = CARTESIAN_POINT('',(7.4,0.45,-3.996802888651E-16));
#755 = VECTOR('',#756,1.);
#756 = DIRECTION('',(8.881784197001E-16,-2.958228394579E-31,-1.));
#757 = ORIENTED_EDGE('',*,*,#758,.T.);
#758 = EDGE_CURVE('',#751,#727,#759,.T.);
#759 = LINE('',#760,#761);
#760 = CARTESIAN_POINT('',(7.4,0.45,-3.5));
#761 = VECTOR('',#762,1.);
#762 = DIRECTION('',(1.,-1.110223024625E-15,-2.22044604925E-16));
#763 = ORIENTED_EDGE('',*,*,#726,.F.);
#764 = ORIENTED_EDGE('',*,*,#398,.F.);
#765 = PLANE('',#766);
#766 = AXIS2_PLACEMENT_3D('',#767,#768,#769);
#767 = CARTESIAN_POINT('',(7.4,0.45,-3.996802888651E-16));
#768 = DIRECTION('',(-2.22044604925E-16,-1.,6.661338147751E-16));
#769 = DIRECTION('',(1.,-8.881784197001E-16,5.546678239835E-31));
#770 = ADVANCED_FACE('',(#771),#782,.F.);
#771 = FACE_BOUND('',#772,.F.);
#772 = EDGE_LOOP('',(#773,#774,#780,#781));
#773 = ORIENTED_EDGE('',*,*,#711,.T.);
#774 = ORIENTED_EDGE('',*,*,#775,.T.);
#775 = EDGE_CURVE('',#704,#751,#776,.T.);
#776 = LINE('',#777,#778);
#777 = CARTESIAN_POINT('',(7.4,-0.45,-3.5));
#778 = VECTOR('',#779,1.);
#779 = DIRECTION('',(-2.22044604925E-16,1.,-1.110223024625E-15));
#780 = ORIENTED_EDGE('',*,*,#750,.F.);
#781 = ORIENTED_EDGE('',*,*,#390,.F.);
#782 = PLANE('',#783);
#783 = AXIS2_PLACEMENT_3D('',#784,#785,#786);
#784 = CARTESIAN_POINT('',(7.4,-0.45,3.996802888651E-16));
#785 = DIRECTION('',(1.,-6.661338147751E-16,2.22044604925E-16));
#786 = DIRECTION('',(3.451266460342E-31,1.,-8.881784197001E-16));
#787 = ADVANCED_FACE('',(#788),#813,.F.);
#788 = FACE_BOUND('',#789,.F.);
#789 = EDGE_LOOP('',(#790,#798,#806,#812));
#790 = ORIENTED_EDGE('',*,*,#791,.T.);
#791 = EDGE_CURVE('',#415,#792,#794,.T.);
#792 = VERTEX_POINT('',#793);
#793 = CARTESIAN_POINT('',(7.6,2.050000000033,-3.5));
#794 = LINE('',#795,#796);
#795 = CARTESIAN_POINT('',(7.6,2.050000000033,-1.820765760415E-15));
#796 = VECTOR('',#797,1.);
#797 = DIRECTION('',(8.881784197001E-16,-2.958228394579E-31,-1.));
#798 = ORIENTED_EDGE('',*,*,#799,.T.);
#799 = EDGE_CURVE('',#792,#800,#802,.T.);
#800 = VERTEX_POINT('',#801);
#801 = CARTESIAN_POINT('',(7.4,2.050000000033,-3.5));
#802 = LINE('',#803,#804);
#803 = CARTESIAN_POINT('',(7.6,2.050000000033,-3.5));
#804 = VECTOR('',#805,1.);
#805 = DIRECTION('',(-1.,1.110223024625E-15,2.22044604925E-16));
#806 = ORIENTED_EDGE('',*,*,#807,.F.);
#807 = EDGE_CURVE('',#417,#800,#808,.T.);
#808 = LINE('',#809,#810);
#809 = CARTESIAN_POINT('',(7.4,2.050000000033,-1.820765760415E-15));
#810 = VECTOR('',#811,1.);
#811 = DIRECTION('',(8.881784197001E-16,-2.958228394579E-31,-1.));
#812 = ORIENTED_EDGE('',*,*,#414,.F.);
#813 = PLANE('',#814);
#814 = AXIS2_PLACEMENT_3D('',#815,#816,#817);
#815 = CARTESIAN_POINT('',(7.6,2.050000000033,-1.820765760415E-15));
#816 = DIRECTION('',(2.22044604925E-16,1.,-6.661338147751E-16));
#817 = DIRECTION('',(-1.,8.881784197001E-16,-5.546678239835E-31));
#818 = ADVANCED_FACE('',(#819),#837,.F.);
#819 = FACE_BOUND('',#820,.F.);
#820 = EDGE_LOOP('',(#821,#829,#835,#836));
#821 = ORIENTED_EDGE('',*,*,#822,.T.);
#822 = EDGE_CURVE('',#433,#823,#825,.T.);
#823 = VERTEX_POINT('',#824);
#824 = CARTESIAN_POINT('',(7.6,2.950000000033,-3.5));
#825 = LINE('',#826,#827);
#826 = CARTESIAN_POINT('',(7.6,2.950000000033,-2.620126338145E-15));
#827 = VECTOR('',#828,1.);
#828 = DIRECTION('',(8.881784197001E-16,-2.958228394579E-31,-1.));
#829 = ORIENTED_EDGE('',*,*,#830,.T.);
#830 = EDGE_CURVE('',#823,#792,#831,.T.);
#831 = LINE('',#832,#833);
#832 = CARTESIAN_POINT('',(7.6,2.950000000033,-3.5));
#833 = VECTOR('',#834,1.);
#834 = DIRECTION('',(2.22044604925E-16,-1.,1.110223024625E-15));
#835 = ORIENTED_EDGE('',*,*,#791,.F.);
#836 = ORIENTED_EDGE('',*,*,#440,.F.);
#837 = PLANE('',#838);
#838 = AXIS2_PLACEMENT_3D('',#839,#840,#841);
#839 = CARTESIAN_POINT('',(7.6,2.950000000033,-2.620126338145E-15));
#840 = DIRECTION('',(-1.,6.661338147751E-16,-2.22044604925E-16));
#841 = DIRECTION('',(-3.451266460342E-31,-1.,8.881784197001E-16));
#842 = ADVANCED_FACE('',(#843),#861,.F.);
#843 = FACE_BOUND('',#844,.F.);
#844 = EDGE_LOOP('',(#845,#853,#859,#860));
#845 = ORIENTED_EDGE('',*,*,#846,.T.);
#846 = EDGE_CURVE('',#425,#847,#849,.T.);
#847 = VERTEX_POINT('',#848);
#848 = CARTESIAN_POINT('',(7.4,2.950000000033,-3.5));
#849 = LINE('',#850,#851);
#850 = CARTESIAN_POINT('',(7.4,2.950000000033,-2.620126338145E-15));
#851 = VECTOR('',#852,1.);
#852 = DIRECTION('',(8.881784197001E-16,-2.958228394579E-31,-1.));
#853 = ORIENTED_EDGE('',*,*,#854,.T.);
#854 = EDGE_CURVE('',#847,#823,#855,.T.);
#855 = LINE('',#856,#857);
#856 = CARTESIAN_POINT('',(7.4,2.950000000033,-3.5));
#857 = VECTOR('',#858,1.);
#858 = DIRECTION('',(1.,-1.110223024625E-15,-2.22044604925E-16));
#859 = ORIENTED_EDGE('',*,*,#822,.F.);
#860 = ORIENTED_EDGE('',*,*,#432,.F.);
#861 = PLANE('',#862);
#862 = AXIS2_PLACEMENT_3D('',#863,#864,#865);
#863 = CARTESIAN_POINT('',(7.4,2.950000000033,-2.620126338145E-15));
#864 = DIRECTION('',(-2.22044604925E-16,-1.,6.661338147751E-16));
#865 = DIRECTION('',(1.,-8.881784197001E-16,5.546678239835E-31));
#866 = ADVANCED_FACE('',(#867),#878,.F.);
#867 = FACE_BOUND('',#868,.F.);
#868 = EDGE_LOOP('',(#869,#870,#876,#877));
#869 = ORIENTED_EDGE('',*,*,#807,.T.);
#870 = ORIENTED_EDGE('',*,*,#871,.T.);
#871 = EDGE_CURVE('',#800,#847,#872,.T.);
#872 = LINE('',#873,#874);
#873 = CARTESIAN_POINT('',(7.4,2.050000000033,-3.5));
#874 = VECTOR('',#875,1.);
#875 = DIRECTION('',(-2.22044604925E-16,1.,-1.110223024625E-15));
#876 = ORIENTED_EDGE('',*,*,#846,.F.);
#877 = ORIENTED_EDGE('',*,*,#424,.F.);
#878 = PLANE('',#879);
#879 = AXIS2_PLACEMENT_3D('',#880,#881,#882);
#880 = CARTESIAN_POINT('',(7.4,2.050000000033,-1.820765760415E-15));
#881 = DIRECTION('',(1.,-6.661338147751E-16,2.22044604925E-16));
#882 = DIRECTION('',(3.451266460342E-31,1.,-8.881784197001E-16));
#883 = ADVANCED_FACE('',(#884),#909,.F.);
#884 = FACE_BOUND('',#885,.F.);
#885 = EDGE_LOOP('',(#886,#894,#902,#908));
#886 = ORIENTED_EDGE('',*,*,#887,.T.);
#887 = EDGE_CURVE('',#449,#888,#890,.T.);
#888 = VERTEX_POINT('',#889);
#889 = CARTESIAN_POINT('',(2.6,-2.05,-3.5));
#890 = LINE('',#891,#892);
#891 = CARTESIAN_POINT('',(2.6,-2.05,1.820765760385E-15));
#892 = VECTOR('',#893,1.);
#893 = DIRECTION('',(8.881784197001E-16,-2.958228394579E-31,-1.));
#894 = ORIENTED_EDGE('',*,*,#895,.T.);
#895 = EDGE_CURVE('',#888,#896,#898,.T.);
#896 = VERTEX_POINT('',#897);
#897 = CARTESIAN_POINT('',(2.6,-2.950000000016,-3.5));
#898 = LINE('',#899,#900);
#899 = CARTESIAN_POINT('',(2.6,-2.05,-3.5));
#900 = VECTOR('',#901,1.);
#901 = DIRECTION('',(2.22044604925E-16,-1.,1.110223024625E-15));
#902 = ORIENTED_EDGE('',*,*,#903,.F.);
#903 = EDGE_CURVE('',#451,#896,#904,.T.);
#904 = LINE('',#905,#906);
#905 = CARTESIAN_POINT('',(2.6,-2.950000000016,2.62012633813E-15));
#906 = VECTOR('',#907,1.);
#907 = DIRECTION('',(8.881784197001E-16,-2.958228394579E-31,-1.));
#908 = ORIENTED_EDGE('',*,*,#448,.F.);
#909 = PLANE('',#910);
#910 = AXIS2_PLACEMENT_3D('',#911,#912,#913);
#911 = CARTESIAN_POINT('',(2.6,-2.05,1.820765760385E-15));
#912 = DIRECTION('',(-1.,6.661338147751E-16,-2.22044604925E-16));
#913 = DIRECTION('',(-3.451266460342E-31,-1.,8.881784197001E-16));
#914 = ADVANCED_FACE('',(#915),#933,.F.);
#915 = FACE_BOUND('',#916,.F.);
#916 = EDGE_LOOP('',(#917,#925,#931,#932));
#917 = ORIENTED_EDGE('',*,*,#918,.T.);
#918 = EDGE_CURVE('',#467,#919,#921,.T.);
#919 = VERTEX_POINT('',#920);
#920 = CARTESIAN_POINT('',(2.4,-2.05,-3.5));
#921 = LINE('',#922,#923);
#922 = CARTESIAN_POINT('',(2.4,-2.05,1.820765760385E-15));
#923 = VECTOR('',#924,1.);
#924 = DIRECTION('',(8.881784197001E-16,-2.958228394579E-31,-1.));
#925 = ORIENTED_EDGE('',*,*,#926,.T.);
#926 = EDGE_CURVE('',#919,#888,#927,.T.);
#927 = LINE('',#928,#929);
#928 = CARTESIAN_POINT('',(2.4,-2.05,-3.5));
#929 = VECTOR('',#930,1.);
#930 = DIRECTION('',(1.,-1.110223024625E-15,-2.22044604925E-16));
#931 = ORIENTED_EDGE('',*,*,#887,.F.);
#932 = ORIENTED_EDGE('',*,*,#474,.F.);
#933 = PLANE('',#934);
#934 = AXIS2_PLACEMENT_3D('',#935,#936,#937);
#935 = CARTESIAN_POINT('',(2.4,-2.05,1.820765760385E-15));
#936 = DIRECTION('',(-2.22044604925E-16,-1.,6.661338147751E-16));
#937 = DIRECTION('',(1.,-8.881784197001E-16,5.546678239835E-31));
#938 = ADVANCED_FACE('',(#939),#957,.F.);
#939 = FACE_BOUND('',#940,.F.);
#940 = EDGE_LOOP('',(#941,#949,#955,#956));
#941 = ORIENTED_EDGE('',*,*,#942,.T.);
#942 = EDGE_CURVE('',#459,#943,#945,.T.);
#943 = VERTEX_POINT('',#944);
#944 = CARTESIAN_POINT('',(2.4,-2.950000000016,-3.5));
#945 = LINE('',#946,#947);
#946 = CARTESIAN_POINT('',(2.4,-2.950000000016,2.62012633813E-15));
#947 = VECTOR('',#948,1.);
#948 = DIRECTION('',(8.881784197001E-16,-2.958228394579E-31,-1.));
#949 = ORIENTED_EDGE('',*,*,#950,.T.);
#950 = EDGE_CURVE('',#943,#919,#951,.T.);
#951 = LINE('',#952,#953);
#952 = CARTESIAN_POINT('',(2.4,-2.950000000016,-3.5));
#953 = VECTOR('',#954,1.);
#954 = DIRECTION('',(-2.22044604925E-16,1.,-1.110223024625E-15));
#955 = ORIENTED_EDGE('',*,*,#918,.F.);
#956 = ORIENTED_EDGE('',*,*,#466,.F.);
#957 = PLANE('',#958);
#958 = AXIS2_PLACEMENT_3D('',#959,#960,#961);
#959 = CARTESIAN_POINT('',(2.4,-2.950000000016,2.62012633813E-15));
#960 = DIRECTION('',(1.,-6.661338147751E-16,2.22044604925E-16));
#961 = DIRECTION('',(3.451266460342E-31,1.,-8.881784197001E-16));
#962 = ADVANCED_FACE('',(#963),#974,.F.);
#963 = FACE_BOUND('',#964,.F.);
#964 = EDGE_LOOP('',(#965,#966,#972,#973));
#965 = ORIENTED_EDGE('',*,*,#903,.T.);
#966 = ORIENTED_EDGE('',*,*,#967,.T.);
#967 = EDGE_CURVE('',#896,#943,#968,.T.);
#968 = LINE('',#969,#970);
#969 = CARTESIAN_POINT('',(2.6,-2.950000000016,-3.5));
#970 = VECTOR('',#971,1.);
#971 = DIRECTION('',(-1.,1.110223024625E-15,2.22044604925E-16));
#972 = ORIENTED_EDGE('',*,*,#942,.F.);
#973 = ORIENTED_EDGE('',*,*,#458,.F.);
#974 = PLANE('',#975);
#975 = AXIS2_PLACEMENT_3D('',#976,#977,#978);
#976 = CARTESIAN_POINT('',(2.6,-2.950000000016,2.62012633813E-15));
#977 = DIRECTION('',(2.22044604925E-16,1.,-6.661338147751E-16));
#978 = DIRECTION('',(-1.,8.881784197001E-16,-5.546678239835E-31));
#979 = ADVANCED_FACE('',(#980),#1005,.F.);
#980 = FACE_BOUND('',#981,.F.);
#981 = EDGE_LOOP('',(#982,#990,#998,#1004));
#982 = ORIENTED_EDGE('',*,*,#983,.T.);
#983 = EDGE_CURVE('',#483,#984,#986,.T.);
#984 = VERTEX_POINT('',#985);
#985 = CARTESIAN_POINT('',(2.6,2.950000000033,-3.5));
#986 = LINE('',#987,#988);
#987 = CARTESIAN_POINT('',(2.6,2.950000000033,-2.620126338145E-15));
#988 = VECTOR('',#989,1.);
#989 = DIRECTION('',(8.881784197001E-16,-2.958228394579E-31,-1.));
#990 = ORIENTED_EDGE('',*,*,#991,.T.);
#991 = EDGE_CURVE('',#984,#992,#994,.T.);
#992 = VERTEX_POINT('',#993);
#993 = CARTESIAN_POINT('',(2.6,2.05,-3.5));
#994 = LINE('',#995,#996);
#995 = CARTESIAN_POINT('',(2.6,2.950000000033,-3.5));
#996 = VECTOR('',#997,1.);
#997 = DIRECTION('',(2.22044604925E-16,-1.,1.110223024625E-15));
#998 = ORIENTED_EDGE('',*,*,#999,.F.);
#999 = EDGE_CURVE('',#485,#992,#1000,.T.);
#1000 = LINE('',#1001,#1002);
#1001 = CARTESIAN_POINT('',(2.6,2.05,-1.820765760385E-15));
#1002 = VECTOR('',#1003,1.);
#1003 = DIRECTION('',(8.881784197001E-16,-2.958228394579E-31,-1.));
#1004 = ORIENTED_EDGE('',*,*,#482,.F.);
#1005 = PLANE('',#1006);
#1006 = AXIS2_PLACEMENT_3D('',#1007,#1008,#1009);
#1007 = CARTESIAN_POINT('',(2.6,2.950000000033,-2.620126338145E-15));
#1008 = DIRECTION('',(-1.,6.661338147751E-16,-2.22044604925E-16));
#1009 = DIRECTION('',(-3.451266460342E-31,-1.,8.881784197001E-16));
#1010 = ADVANCED_FACE('',(#1011),#1029,.F.);
#1011 = FACE_BOUND('',#1012,.F.);
#1012 = EDGE_LOOP('',(#1013,#1021,#1027,#1028));
#1013 = ORIENTED_EDGE('',*,*,#1014,.T.);
#1014 = EDGE_CURVE('',#501,#1015,#1017,.T.);
#1015 = VERTEX_POINT('',#1016);
#1016 = CARTESIAN_POINT('',(2.400000000016,2.950000000033,-3.5));
#1017 = LINE('',#1018,#1019);
#1018 = CARTESIAN_POINT('',(2.400000000016,2.950000000033,
    -2.620126338145E-15));
#1019 = VECTOR('',#1020,1.);
#1020 = DIRECTION('',(8.881784197001E-16,-2.958228394579E-31,-1.));
#1021 = ORIENTED_EDGE('',*,*,#1022,.T.);
#1022 = EDGE_CURVE('',#1015,#984,#1023,.T.);
#1023 = LINE('',#1024,#1025);
#1024 = CARTESIAN_POINT('',(2.400000000016,2.950000000033,-3.5));
#1025 = VECTOR('',#1026,1.);
#1026 = DIRECTION('',(1.,-1.110223024625E-15,-2.22044604925E-16));
#1027 = ORIENTED_EDGE('',*,*,#983,.F.);
#1028 = ORIENTED_EDGE('',*,*,#508,.F.);
#1029 = PLANE('',#1030);
#1030 = AXIS2_PLACEMENT_3D('',#1031,#1032,#1033);
#1031 = CARTESIAN_POINT('',(2.400000000016,2.950000000033,
    -2.620126338145E-15));
#1032 = DIRECTION('',(-2.22044604925E-16,-1.,6.661338147751E-16));
#1033 = DIRECTION('',(1.,-8.881784197001E-16,5.546678239835E-31));
#1034 = ADVANCED_FACE('',(#1035),#1053,.F.);
#1035 = FACE_BOUND('',#1036,.F.);
#1036 = EDGE_LOOP('',(#1037,#1045,#1051,#1052));
#1037 = ORIENTED_EDGE('',*,*,#1038,.T.);
#1038 = EDGE_CURVE('',#493,#1039,#1041,.T.);
#1039 = VERTEX_POINT('',#1040);
#1040 = CARTESIAN_POINT('',(2.400000000016,2.05,-3.5));
#1041 = LINE('',#1042,#1043);
#1042 = CARTESIAN_POINT('',(2.400000000016,2.05,-1.820765760385E-15));
#1043 = VECTOR('',#1044,1.);
#1044 = DIRECTION('',(8.881784197001E-16,-2.958228394579E-31,-1.));
#1045 = ORIENTED_EDGE('',*,*,#1046,.T.);
#1046 = EDGE_CURVE('',#1039,#1015,#1047,.T.);
#1047 = LINE('',#1048,#1049);
#1048 = CARTESIAN_POINT('',(2.400000000016,2.05,-3.5));
#1049 = VECTOR('',#1050,1.);
#1050 = DIRECTION('',(-2.22044604925E-16,1.,-1.110223024625E-15));
#1051 = ORIENTED_EDGE('',*,*,#1014,.F.);
#1052 = ORIENTED_EDGE('',*,*,#500,.F.);
#1053 = PLANE('',#1054);
#1054 = AXIS2_PLACEMENT_3D('',#1055,#1056,#1057);
#1055 = CARTESIAN_POINT('',(2.400000000016,2.05,-1.820765760385E-15));
#1056 = DIRECTION('',(1.,-6.661338147751E-16,2.22044604925E-16));
#1057 = DIRECTION('',(3.451266460342E-31,1.,-8.881784197001E-16));
#1058 = ADVANCED_FACE('',(#1059),#1070,.F.);
#1059 = FACE_BOUND('',#1060,.F.);
#1060 = EDGE_LOOP('',(#1061,#1062,#1068,#1069));
#1061 = ORIENTED_EDGE('',*,*,#999,.T.);
#1062 = ORIENTED_EDGE('',*,*,#1063,.T.);
#1063 = EDGE_CURVE('',#992,#1039,#1064,.T.);
#1064 = LINE('',#1065,#1066);
#1065 = CARTESIAN_POINT('',(2.6,2.05,-3.5));
#1066 = VECTOR('',#1067,1.);
#1067 = DIRECTION('',(-1.,1.110223024625E-15,2.22044604925E-16));
#1068 = ORIENTED_EDGE('',*,*,#1038,.F.);
#1069 = ORIENTED_EDGE('',*,*,#492,.F.);
#1070 = PLANE('',#1071);
#1071 = AXIS2_PLACEMENT_3D('',#1072,#1073,#1074);
#1072 = CARTESIAN_POINT('',(2.6,2.05,-1.820765760385E-15));
#1073 = DIRECTION('',(2.22044604925E-16,1.,-6.661338147751E-16));
#1074 = DIRECTION('',(-1.,8.881784197001E-16,-5.546678239835E-31));
#1075 = ADVANCED_FACE('',(#1076),#1082,.F.);
#1076 = FACE_BOUND('',#1077,.T.);
#1077 = EDGE_LOOP('',(#1078,#1079,#1080,#1081));
#1078 = ORIENTED_EDGE('',*,*,#679,.T.);
#1079 = ORIENTED_EDGE('',*,*,#662,.T.);
#1080 = ORIENTED_EDGE('',*,*,#638,.T.);
#1081 = ORIENTED_EDGE('',*,*,#607,.T.);
#1082 = PLANE('',#1083);
#1083 = AXIS2_PLACEMENT_3D('',#1084,#1085,#1086);
#1084 = CARTESIAN_POINT('',(5.499999999984,4.944489262471E-12,-3.5));
#1085 = DIRECTION('',(-1.110223024625E-15,-2.22044604925E-16,1.));
#1086 = DIRECTION('',(1.,-8.881784197001E-16,-2.22044604925E-16));
#1087 = ADVANCED_FACE('',(#1088),#1094,.F.);
#1088 = FACE_BOUND('',#1089,.T.);
#1089 = EDGE_LOOP('',(#1090,#1091,#1092,#1093));
#1090 = ORIENTED_EDGE('',*,*,#775,.T.);
#1091 = ORIENTED_EDGE('',*,*,#758,.T.);
#1092 = ORIENTED_EDGE('',*,*,#734,.T.);
#1093 = ORIENTED_EDGE('',*,*,#703,.T.);
#1094 = PLANE('',#1095);
#1095 = AXIS2_PLACEMENT_3D('',#1096,#1097,#1098);
#1096 = CARTESIAN_POINT('',(5.499999999984,4.944489262471E-12,-3.5));
#1097 = DIRECTION('',(-1.110223024625E-15,-2.22044604925E-16,1.));
#1098 = DIRECTION('',(1.,-8.881784197001E-16,-2.22044604925E-16));
#1099 = ADVANCED_FACE('',(#1100),#1106,.F.);
#1100 = FACE_BOUND('',#1101,.T.);
#1101 = EDGE_LOOP('',(#1102,#1103,#1104,#1105));
#1102 = ORIENTED_EDGE('',*,*,#871,.T.);
#1103 = ORIENTED_EDGE('',*,*,#854,.T.);
#1104 = ORIENTED_EDGE('',*,*,#830,.T.);
#1105 = ORIENTED_EDGE('',*,*,#799,.T.);
#1106 = PLANE('',#1107);
#1107 = AXIS2_PLACEMENT_3D('',#1108,#1109,#1110);
#1108 = CARTESIAN_POINT('',(5.499999999984,4.944489262471E-12,-3.5));
#1109 = DIRECTION('',(-1.110223024625E-15,-2.22044604925E-16,1.));
#1110 = DIRECTION('',(1.,-8.881784197001E-16,-2.22044604925E-16));
#1111 = ADVANCED_FACE('',(#1112),#1118,.F.);
#1112 = FACE_BOUND('',#1113,.T.);
#1113 = EDGE_LOOP('',(#1114,#1115,#1116,#1117));
#1114 = ORIENTED_EDGE('',*,*,#967,.T.);
#1115 = ORIENTED_EDGE('',*,*,#950,.T.);
#1116 = ORIENTED_EDGE('',*,*,#926,.T.);
#1117 = ORIENTED_EDGE('',*,*,#895,.T.);
#1118 = PLANE('',#1119);
#1119 = AXIS2_PLACEMENT_3D('',#1120,#1121,#1122);
#1120 = CARTESIAN_POINT('',(5.499999999984,4.944489262471E-12,-3.5));
#1121 = DIRECTION('',(-1.110223024625E-15,-2.22044604925E-16,1.));
#1122 = DIRECTION('',(1.,-8.881784197001E-16,-2.22044604925E-16));
#1123 = ADVANCED_FACE('',(#1124),#1130,.F.);
#1124 = FACE_BOUND('',#1125,.T.);
#1125 = EDGE_LOOP('',(#1126,#1127,#1128,#1129));
#1126 = ORIENTED_EDGE('',*,*,#1063,.T.);
#1127 = ORIENTED_EDGE('',*,*,#1046,.T.);
#1128 = ORIENTED_EDGE('',*,*,#1022,.T.);
#1129 = ORIENTED_EDGE('',*,*,#991,.T.);
#1130 = PLANE('',#1131);
#1131 = AXIS2_PLACEMENT_3D('',#1132,#1133,#1134);
#1132 = CARTESIAN_POINT('',(5.499999999984,4.944489262471E-12,-3.5));
#1133 = DIRECTION('',(-1.110223024625E-15,-2.22044604925E-16,1.));
#1134 = DIRECTION('',(1.,-8.881784197001E-16,-2.22044604925E-16));
#1135 = ( GEOMETRIC_REPRESENTATION_CONTEXT(3) 
GLOBAL_UNCERTAINTY_ASSIGNED_CONTEXT((#1139)) 
GLOBAL_UNIT_ASSIGNED_CONTEXT((#1136,#1137,#1138)) REPRESENTATION_CONTEXT
('Context #1','3D Context with UNIT and UNCERTAINTY') );
#1136 = ( LENGTH_UNIT() NAMED_UNIT(*) SI_UNIT(.MILLI.,.METRE.) );
#1137 = ( NAMED_UNIT(*) PLANE_ANGLE_UNIT() SI_UNIT($,.RADIAN.) );
#1138 = ( NAMED_UNIT(*) SI_UNIT($,.STERADIAN.) SOLID_ANGLE_UNIT() );
#1139 = UNCERTAINTY_MEASURE_WITH_UNIT(LENGTH_MEASURE(1.E-07),#1136,
  'distance_accuracy_value','confusion accuracy');
#1140 = PRODUCT_RELATED_PRODUCT_CATEGORY('part',$,(#7));
#1141 = MECHANICAL_DESIGN_GEOMETRIC_PRESENTATION_REPRESENTATION('',(
    #1142),#1135);
#1142 = STYLED_ITEM('color',(#1143),#15);
#1143 = PRESENTATION_STYLE_ASSIGNMENT((#1144,#1150));
#1144 = SURFACE_STYLE_USAGE(.BOTH.,#1145);
#1145 = SURFACE_SIDE_STYLE('',(#1146));
#1146 = SURFACE_STYLE_FILL_AREA(#1147);
#1147 = FILL_AREA_STYLE('',(#1148));
#1148 = FILL_AREA_STYLE_COLOUR('',#1149);
#1149 = COLOUR_RGB('',0.678430976034,0.709803998361,0.741176010593);
#1150 = CURVE_STYLE('',#1151,POSITIVE_LENGTH_MEASURE(0.1),#1152);
#1151 = DRAUGHTING_PRE_DEFINED_CURVE_FONT('continuous');
#1152 = COLOUR_RGB('',9.803921802644E-02,9.803921802644E-02,
  9.803921802644E-02);
ENDSEC;
END-ISO-10303-21;
